<?xml version="1.0" encoding="utf-8"?>
<!DOCTYPE svg PUBLIC "-//W3C//DTD SVG 1.0//EN" "http://www.w3.org/TR/2001/REC-SVG-20010904/DTD/svg10.dtd" [
	<!ENTITY ns_flows "http://ns.adobe.com/Flows/1.0/">
]>
<svg xmlns="http://www.w3.org/2000/svg" xmlns:xlink="http://www.w3.org/1999/xlink" version="1.1" class="" pageAlignment="center-horizontally-vertically" x="0px" y="0px" width="408px" height="81px" viewBox="0 0 408 81" enable-background="new 0 0 408 81" xml:space="preserve" bodyBackgroundColor="rgba(255,255,255,0)"><defs><linearGradient x1="0" y1="0" x2="0" y2="89" id="_1472088893674_0_" gradientUnits="userSpaceOnUse" gradientTransform="matrix(1 0 0 1 0 0)"><stop offset="0" style="stop-color:rgb(41, 62, 83)"/><stop offset="1" style="stop-color:rgb(216, 67, 21)"/></linearGradient></defs><g id="Layer 01" type="LAYER" name="Layer 01"><path transform="matrix(0.9999999999999976 0 0 1 50.59999999999998 0)" width="307.5" height="69.66" stroke-linecap="round" stroke-miterlimit="3" stroke="url(#_1472088893674_0_)" fill="#293E53" d="M71.46,3.3599999999999994 Q71.88,3.3599999999999994 72.24,3.3599999999999994 L72.24,3.960000000000001 Q69.42,4.080000000000005 66.89999999999999,5.280000000000001 Q64.38,6.480000000000004 62.64,8.130000000000003 Q60.9,9.780000000000001 59.4,12.120000000000005 Q57,15.840000000000003 55.32,20.64 L43.8,54.06 Q42.6,57.84 42.48,60.72 L41.94,60.72 L29.7,26.46 L20.04,56.7 Q17.88,63.48 13.08,67.26 Q9.6,70.08 5.279999999999999,70.08 Q3.78,70.08 2.1,69.72 L2.2199999999999998,69.12 Q3.12,69.3 4.29,69.3 Q5.46,69.3 7.41,68.58 Q9.36,67.86 11.28,66 Q15.18,62.22 17.28,56.52 L5.16,22.259999999999998 Q4.4399999999999995,20.46 2.94,19.53 Q1.44,18.6 -0.12,18.6 L-0.6,18.6 L-0.6,18 L12.719999999999999,18 L12.719999999999999,18.6 L12.18,18.6 Q10.92,18.6 10.29,19.410000000000004 Q9.66,20.22 9.66,20.940000000000005 Q9.66,21.660000000000004 9.84,22.259999999999998 L18.96,51.480000000000004 L30.119999999999997,17.04 L30.66,17.1 L42.54,50.34 L51.419999999999995,20.64 Q52.98,15.420000000000002 56.22,11.219999999999999 Q62.22,3.3599999999999994 71.46,3.3599999999999994 M110.46,7.68 Q110.94,7.68 111.47999999999999,7.68 L111.47999999999999,8.280000000000001 Q104.88,8.280000000000001 101.03999999999999,12.630000000000003 Q97.19999999999999,16.980000000000004 97.19999999999999,25.200000000000003 L97.19999999999999,45.18 Q97.19999999999999,52.2 92.75999999999999,56.52 Q88.32,60.84 80.94,60.84 Q73.56,60.84 68.97,56.55 Q64.38,52.26 64.38,45.24 L64.38,21.54 Q64.38,19.800000000000004 62.81999999999999,18.96 Q62.099999999999994,18.6 61.199999999999996,18.6 L60.239999999999995,18.6 L60.239999999999995,18 L72.41999999999999,18 L72.41999999999999,18.6 L71.46,18.6 Q70.14,18.6 69.24,19.410000000000004 Q68.33999999999999,20.22 68.28,21.480000000000004 L68.28,44.4 Q68.28,50.94 71.78999999999999,54.93 Q75.3,58.92 81,58.92 Q87.06,58.92 90.72,55.14 Q94.38,51.36 94.38,45.18 L94.38,25.259999999999998 Q94.38,16.440000000000005 98.85,12.060000000000002 Q103.32,7.68 110.46,7.68 M119.22,61.14 Q132,65.58 138.39,67.17 Q144.78,68.76 149.37,68.76 Q153.95999999999998,68.76 159.48,66.66 L159.78,67.14 Q152.45999999999998,72.18 145.01999999999998,72.18 Q137.4,72.18 127.68,67.44 Q120.17999999999999,63.72 118.38,62.94 Q111.96,60.06 107.82,60 L107.82,59.4 L108.6,59.4 Q110.16,59.4 111.27,58.32 Q112.38,57.24 112.44,55.62 L112.44,22.380000000000003 Q112.38,20.82 111.27,19.71 Q110.16,18.6 108.6,18.6 L107.82,18.6 L107.82,18 L120.96,18 L120.96,18.6 L120.17999999999999,18.6 Q118.62,18.6 117.48,19.71 Q116.34,20.82 116.34,22.380000000000003 L116.34,57 Q116.34,58.08 116.46,58.65 Q116.58,59.22 117.24,59.94 Q117.9,60.66 119.22,61.14 M135.36,15.96 Q139.26,14.340000000000003 142.86,14.340000000000003 Q145.86,14.340000000000003 149.04,16.560000000000002 Q150.78,17.760000000000005 152.94,21.240000000000002 Q154.38,23.64 156.6,29.94 L163.92000000000002,50.7 Q166.44,57.66 169.05,61.77 Q171.66,65.88 173.82,67.95 Q175.98,70.02 178.32,70.86 Q180.66,71.7 182.19,71.7 Q183.72,71.7 184.92000000000002,71.46 L184.98,72.06 Q182.1,73.02 179.34,73.02 Q176.57999999999998,73.02 173.82,71.61 Q171.06,70.2 168.66,67.68 Q163.5,62.46 159.9,51.78 L157.56,44.94 L141.12,44.94 L136.98,55.62 Q136.68,56.34 136.68,57.06 Q136.68,57.78 137.31,58.59 Q137.94,59.4 139.26,59.4 L139.74,59.4 L139.74,60 L127.68,60 L127.68,59.4 L128.22,59.4 Q129.66,59.4 131.04,58.53 Q132.42,57.66 133.32,55.92 L148.2,20.28 Q144.96,15.660000000000004 140.16,15.660000000000004 Q138,15.660000000000004 135.54,16.560000000000002 L135.36,15.96 M141.78,43.14 L156.96,43.14 L152.22,29.16 Q150.84,25.14 149.7,22.86 L141.78,43.14 M218.82,38.94 Q218.82,49.26 213.26999999999998,55.05 Q207.72,60.84 197.57999999999998,60.84 Q190.74,60.84 185.25,57.96 Q179.76,55.08 176.73,50.1 Q173.7,45.120000000000005 173.7,38.97 Q173.7,32.82 176.7,27.840000000000003 Q179.7,22.86 184.98,20.009999999999998 Q190.26,17.160000000000004 196.74,17.160000000000004 Q200.82,17.160000000000004 205.05,18.270000000000003 Q209.28,19.380000000000003 212.1,21.240000000000002 L213.3,29.700000000000003 L212.76,29.700000000000003 Q211.5,24.660000000000004 206.94,21.810000000000002 Q202.38,18.96 196.8,18.96 Q188.82,18.96 183.51,24.630000000000003 Q178.2,30.3 178.2,38.88 Q178.2,47.46 183.69,53.25 Q189.18,59.04 198.06,59.04 Q206.94,59.04 212.55,53.28 Q218.16,47.519999999999996 218.16,37.5 L218.76,37.5 Q218.82,38.22 218.82,38.94 M286.26,69.72 Q286.62,69.72 286.98,69.72 L286.98,70.32 Q285.29999999999995,70.56 283.23,70.56 Q281.15999999999997,70.56 278.13,69.66 Q275.09999999999997,68.76 272.64,66.3 Q267.59999999999997,61.26 266.52,53.22 L262.86,26.520000000000003 L250.38,54.72 Q248.7,58.38 248.33999999999997,60.84 L247.73999999999998,60.84 L232.2,27.060000000000002 L229.56,56.88 Q229.44,57.9 230.19,58.68 Q230.94,59.46 231.84,59.46 Q231.84,59.46 231.84,59.46 L232.79999999999998,59.46 L232.79999999999998,60 L221.16,60 L221.16,59.4 L222.12,59.4 Q223.73999999999998,59.4 224.97,58.41 Q226.2,57.42 226.5,55.8 L230.28,23.04 Q225,12.660000000000004 217.62,12.660000000000004 Q216.95999999999998,12.660000000000004 216.23999999999998,12.719999999999999 L216.23999999999998,12.120000000000005 Q217.85999999999999,11.700000000000003 218.88,11.700000000000003 Q219.89999999999998,11.700000000000003 221.1,11.79 Q222.29999999999998,11.880000000000003 223.92,12.36 Q225.54,12.840000000000003 226.98,13.770000000000003 Q228.42,14.700000000000003 229.5,15.690000000000005 Q230.57999999999998,16.68 231.54,17.880000000000003 Q233.16,20.04 234.12,22.020000000000003 L248.57999999999998,53.34 L264.71999999999997,17.160000000000004 L265.26,17.160000000000004 L270.84,52.68 Q272.09999999999997,61.08 276.27,65.4 Q280.44,69.72 286.26,69.72 M283.26,44.04 Q280.14,48.120000000000005 280.14,52.86 Q280.14,58.5 284.88,61.62 Q287.64,63.48 291.15,63.48 Q294.66,63.48 297.24,62.1 Q302.1,59.58 302.7,53.64 Q302.76,53.22 302.76,52.8 Q302.76,50.58 301.53000000000003,48 Q300.3,45.42 297.54,43.260000000000005 L286.74,34.74 Q283.2,31.98 283.2,27.6 Q283.2,23.22 286.02,20.190000000000005 Q288.84000000000003,17.160000000000004 293.64,17.160000000000004 Q296.04,17.160000000000004 298.86,17.760000000000005 L301.26,17.760000000000005 L301.38,25.14 L300.78000000000003,25.14 Q300.72,22.259999999999998 298.71,20.61 Q296.7,18.96 293.67,18.96 Q290.64,18.96 288.6,20.97 Q286.56,22.980000000000004 286.56,26.130000000000003 Q286.56,29.28 289.2,31.380000000000003 L300.3,40.14 Q306.9,45.36 306.9,52.74 Q306.9,58.26 302.52,62.22 Q298.74,65.64 292.44,65.64 Q288.6,65.64 285.6,64.2 Q279.96,61.56 278.82,55.2 Q278.64,54.24 278.64,52.77 Q278.64,51.3 279.48,48.75 Q280.32,46.2 282.72,43.620000000000005 L283.26,44.04 Z "/></g><g transform="matrix(1 0 0 1 218.26791270424823 11.645180358741086)"><path id="path3218" transform="matrix(0.9999999999999998 0 0 0.9999999999999998 0 5.684341886080802e-14)" width="20.07403338873985" height="22.08416346517813" stroke-width="0.8564578604913008" stroke-linecap="round" stroke-linejoin="round" stroke="#000000" fill="#0D47A1" d="M0.9177481261327785,19.292361432052402 C2.8346506980378763,26.45259794676818 8.639383561478553,31.119333411298584 13.881581841166167,29.714690704392353 C19.123785901944302,28.310047997486024 21.817460638542798,21.366170509831036 19.89743028253116,14.206770326216017 C17.980524927137992,7.046532955042451 13.478092552678618,7.2400344064934075 8.235889348358285,8.644676042827399 C2.99368849929715,10.049321104992785 -1.0022824439933515,12.132961034323017 0.9177483402472149,19.29236121793798 Z "/><path id="path2400" transform="matrix(0.9999999999999998 0 0 0.9999999999999998 0 5.684341886080802e-14)" width="20.074032301038294" height="22.08416346517813" stroke-width="0.8564578604913008" stroke-linecap="round" stroke-linejoin="round" stroke="#000000" fill="#293E53" d="M56.849781934570956,19.292361432052402 C54.932879790894845,26.45259794676818 49.128151637972394,31.119333411298584 43.8859507889112,29.714690704392353 C38.64374672813301,28.310047997486024 35.95007199153457,21.366170509831036 37.87010084874498,14.206770326216017 C39.78700620413815,7.046532955042451 44.28944114797099,7.2400344064934075 49.531641782917745,8.644676042827399 C54.77384263197894,10.049321104992785 58.769813789383875,12.132961034323017 56.849781934570956,19.29236121793798 Z "/><path id="path2398" transform="matrix(0.9999999999999998 0 0 0.9999999999999998 0 5.684341886080802e-14)" width="37.06042186013582" height="37.071523481037985" stroke-width="0.8564578604913008" stroke-linecap="round" stroke-linejoin="round" stroke="#000000" fill="#B71C1C" d="M47.270613372094886,18.96399227662313 C47.273661505620396,29.200118189055715 38.97651379467595,37.499752411283595 28.74040415494278,37.499752411283595 C18.504289590576775,37.499752411283595 10.207141023174472,29.200118189055715 10.210191511959067,18.96399227662313 C10.207140809060036,8.727864651274786 13.652597982898385,0.42822893024560926 28.74040415494278,0.42822893024560926 C44.13087782436645,0.42822893024560926 47.27366171973483,8.727864651274786 47.270613372094886,18.96399227662313 Z "/><path id="path2383" transform="matrix(0.9999999999999998 0 0 0.9999999999999998 0 5.684341886080802e-14)" width="46.906801849253725" height="46.92078973314577" stroke-width="0.8564578604913008" stroke-linecap="round" stroke-linejoin="round" stroke="#000000" fill="#293E53" d="M52.19380186785264,27.742678923225 C52.19766363634557,40.69836494051705 41.69609017223479,51.2030749674274 28.740400729111286,51.2030749674274 C15.78471471181922,51.2030749674274 5.283139534792724,40.69836494051705 5.287000018598917,27.742678923225 C5.283139534792724,14.786991193017187 15.78471471181922,4.28228523428163 28.740400729111286,4.28228523428163 C41.69609017223479,4.28228523428163 52.19766363634557,14.786991193017187 52.19380186785264,27.742678923225 Z "/><path id="path3245" transform="matrix(0.9999999999999998 0 0 0.9999999999999998 0 5.684341886080802e-14)" width="17.581705689249247" height="14.628362839423652" stroke-width="0.8564578604913008" stroke-linecap="round" stroke-linejoin="round" stroke="#000000" fill="#293E53" d="M10.74262631243414,49.475300344908646 C10.741178256306455,54.331418126810064 14.677400343989973,54.95007810707676 19.533478728829834,54.95007810707676 C24.389555614868414,54.95007810707676 28.325779415467593,54.331418126810064 28.324332001683388,49.475300344908646 C28.325779415467593,44.61917613957334 24.224088598564833,41.93858936377001 19.533478728829834,40.681745161619745 C12.236264626196373,38.726460858925634 10.741178042192018,44.61917613957334 10.74262631243414,49.475300344908646 Z "/><path id="path3220" transform="matrix(0.9999999999999998 0 0 0.9999999999999998 0 5.684341886080802e-14)" width="17.581706545707107" height="14.628362839423737" stroke-width="0.8564578604913008" stroke-linecap="round" stroke-linejoin="round" stroke="#000000" fill="#1B5E20" d="M48.02286279298323,49.26118587978584 C48.02431020676755,54.11730366168729 44.088088119084034,54.735963641954044 39.23200952012979,54.735963641954044 C34.375930921175495,54.735963641954044 30.43970883349192,54.11730366168729 30.441156247276126,49.26118587978584 C30.43970883349192,44.405061674450536 34.54139793747896,41.7244748986472 39.23200952012979,40.46763069649694 C46.52922362276314,38.51234639380283 48.02431020676755,44.405061674450536 48.02286279298323,49.26118587978584 Z "/><path id="svg_4" transform="matrix(0.9999999999999998 0 0 0.9999999999999998 0 5.684341886080802e-14)" width="1.498801255859746" height="6.637548418807455" stroke-width="0.8564578604913008" stroke-linecap="round" stroke-linejoin="round" stroke="#000000" fill="none" d="M27.406651535721664,33.401856559160734 L28.90545279158141,40.03940497796819 "/><path id="svg_5" transform="matrix(0.9999999999999998 0 0 0.9999999999999998 0 5.684341886080802e-14)" width="2.141144651228217" height="2.569373581473968" stroke-width="0.8564578604913008" stroke-linecap="round" stroke-linejoin="round" stroke="#000000" fill="none" d="M28.90545279158141,40.25351944309105 L26.764308140353194,42.82289302456502 "/><path id="svg_8" transform="matrix(0.9999999999999998 0 0 0.9999999999999998 0 5.684341886080802e-14)" height="3.63994590708802" stroke-width="0.8564578604913008" stroke-linecap="round" stroke-linejoin="round" stroke="#000000" fill="none" d="M29.119567256704272,40.25351944309105 L29.119567256704272,43.89346535017907 "/><path id="svg_9" transform="matrix(0.9999999999999998 0 0 0.9999999999999998 0 5.684341886080802e-14)" width="1.927030186105469" height="2.783488046596716" stroke-width="0.8564578604913008" stroke-linecap="round" stroke-linejoin="round" stroke="#000000" fill="none" d="M29.54779618694988,40.25351944309105 L31.47482637305535,43.03700748968777 "/></g></svg>