<?xml version="1.0" encoding="utf-8"?>
<!DOCTYPE svg PUBLIC "-//W3C//DTD SVG 1.0//EN" "http://www.w3.org/TR/2001/REC-SVG-20010904/DTD/svg10.dtd" [
	<!ENTITY ns_flows "http://ns.adobe.com/Flows/1.0/">
]>
<svg xmlns="http://www.w3.org/2000/svg" xmlns:xlink="http://www.w3.org/1999/xlink" version="1.1" class="" pageAlignment="center-horizontally-vertically" x="0px" y="0px" width="256px" height="256px" viewBox="0 0 256 256" enable-background="new 0 0 256 256" xml:space="preserve" bodyBackgroundColor="rgba(255,255,255,0)">
	<defs/>
	<g transform="matrix(1 0 0 1 6.151022927443194 6.11497693473995)"><path id="path3218" transform="matrix(1 0 0 1 0 1.9895196601282805e-13)" width="84.68426471838391" height="97.21238937535992" stroke-width="3.6907138229453897" stroke-linecap="round" stroke-linejoin="round" stroke="#000000" fill="#AC5115" d="M3.871609843083263,84.92314207237399 C11.958250016234445,116.44182292192302 36.44608088249427,136.98434905405662 58.560804825931484,130.80124531221298 C80.67555315746193,124.61814157036899 92.03908235171374,94.05185260184696 83.93924731671638,62.536853202344304 C75.85259540114964,31.018168582749453 56.85864596948167,31.86994358762152 34.7439012510018,38.05304261690783 C12.629166468412222,44.23615672637844 -4.228226095176893,53.4081417303603 3.8716107463458798,84.92314112986266 Z "/><path id="path2400" transform="matrix(1 0 0 1 0 1.9895196601282805e-13)" width="84.68426012980885" height="97.21238937535992" stroke-width="3.6907138229453897" stroke-linecap="round" stroke-linejoin="round" stroke="#000000" fill="#293E53" d="M239.82634128874588,84.92314207237399 C231.73970292212033,116.44182292192302 207.25189192764043,136.98434905405662 185.13715714505054,130.80124531221298 C163.02240881351986,124.61814157036899 151.65887961926842,94.05185260184696 159.75870833142687,62.536853202344304 C167.8453602469935,31.018168582749453 186.8393205178137,31.86994358762152 208.9540543971409,38.05304261690783 C231.0687891797307,44.23615672637844 247.92618264658233,53.4081417303603 239.82634128874588,84.92314112986266 Z "/><path id="path2398" transform="matrix(1 0 0 1 0 1.9895196601282805e-13)" width="156.3429986690751" height="163.18532422832675" stroke-width="3.6907138229453897" stroke-linecap="round" stroke-linejoin="round" stroke="#000000" fill="#293E53" d="M199.4156858605362,83.47769224825991 C199.42854470864978,128.53614598881592 164.42621908955988,165.07034729358662 121.24419375210076,165.07034729358662 C78.06214763959835,165.07034729358662 43.05981840745781,128.53614598881592 43.072687191461114,83.47769224825991 C43.05981750419514,38.419230967611426 57.5948141207121,1.885023065259844 121.24419375210076,1.885023065259844 C186.17040569582844,1.885023065259844 199.42854561191234,38.419230967611426 199.4156858605362,83.47769224825991 Z "/><path id="path2383" transform="matrix(1 0 0 1 0 1.9895196601282805e-13)" width="197.88091152240233" height="206.54085849935382" stroke-width="3.6907138229453897" stroke-linecap="round" stroke-linejoin="round" stroke="#000000" fill="#293E53" d="M220.18463596436095,122.12063681074484 C220.2009272108187,179.1503357497054 175.89901687858026,225.39107124423498 121.24417929989704,225.39107124423498 C66.58935617341717,225.39107124423498 22.28743861507698,179.1503357497054 22.30372444195862,122.12063681074484 C22.28743861507698,65.09093033169185 66.58935617341717,18.850212744881162 121.24417929989704,18.850212744881162 C175.89901687858026,18.850212744881162 220.2009272108187,65.09093033169185 220.18463596436095,122.12063681074484 Z "/><path id="path3245" transform="matrix(1 0 0 1 0 1.9895196601282805e-13)" width="74.17013760793401" height="64.39266339032352" stroke-width="3.6907138229453897" stroke-linecap="round" stroke-linejoin="round" stroke="#000000" fill="#293E53" d="M45.31881524732074,217.78557151036466 C45.312706481530086,239.16174061050606 61.91804267922319,241.88502306526 82.4038822447624,241.88502306526 C102.88971548746233,241.88502306526 119.49505891125693,239.16174061050606 119.48895285525475,217.78557151036466 C119.49505891125693,196.4093741348778 102.19167676552445,184.60968582815417 82.4038822447624,179.07717706203107 C51.61987392878689,170.47020133153802 45.31270557826744,196.4093741348778 45.31881524732074,217.78557151036466 Z "/><path id="path3220" transform="matrix(1 0 0 1 0 1.9895196601282805e-13)" width="74.17014122098504" height="64.39266339032397" stroke-width="3.6907138229453897" stroke-linecap="round" stroke-linejoin="round" stroke="#000000" fill="#AC5115" d="M202.58912329879865,216.84305997773487 C202.59522935480118,238.21922907787626 185.98989315710804,240.94251153263048 165.50405268830661,240.94251153263048 C145.0182122195049,240.94251153263048 128.41287602181166,238.21922907787626 128.4189820778136,216.84305997773487 C128.41287602181166,195.46686260224783 145.7162509414423,183.66717429552432 165.50405268830661,178.1346655294011 C196.28806100428164,169.52768979890806 202.59522935480118,195.46686260224783 202.58912329879865,216.84305997773487 Z "/><path id="svg_4" transform="matrix(1 0 0 1 0 1.9895196601282805e-13)" width="6.322839055486895" height="29.217857511530156" stroke-width="3.6907138229453897" stroke-linecap="round" stroke-linejoin="round" stroke="#000000" fill="none" d="M115.61762844319202,147.03179909028353 L121.94046749867891,176.24965660181368 "/><path id="svg_5" transform="matrix(1 0 0 1 0 1.9895196601282805e-13)" width="9.032627222124205" height="11.310138391560542" stroke-width="3.6907138229453897" stroke-linecap="round" stroke-linejoin="round" stroke="#000000" fill="none" d="M121.94046749867891,177.19216813444393 L112.90784027655471,188.50230652600447 "/><path id="svg_8" transform="matrix(1 0 0 1 0 1.9895196601282805e-13)" height="16.02269605471031" stroke-width="3.6907138229453897" stroke-linecap="round" stroke-linejoin="round" stroke="#000000" fill="none" d="M122.84373022089153,177.19216813444393 L122.84373022089153,193.21486418915424 "/><path id="svg_9" transform="matrix(1 0 0 1 0 1.9895196601282805e-13)" width="8.129364499912128" height="12.252649924190166" stroke-width="3.6907138229453897" stroke-linecap="round" stroke-linejoin="round" stroke="#000000" fill="none" d="M124.65025566531625,177.19216813444393 L132.77962016522838,189.4448180586341 "/></g><g type="LAYER" name="GROUP" id="GROUP"><path id="path3218" transform="matrix(1 0 0 1 6.151022927443165 6.114976934740149)" width="84.68426471838391" height="97.21238937535992" stroke-width="3.6907138229453897" stroke-linecap="round" stroke-linejoin="round" stroke="#000000" fill="#0D47A1" d="M3.871609843083263,84.92314207237399 C11.958250016234445,116.44182292192302 36.44608088249427,136.98434905405662 58.560804825931484,130.80124531221298 C80.67555315746193,124.61814157036899 92.03908235171374,94.05185260184696 83.93924731671638,62.536853202344304 C75.85259540114964,31.018168582749453 56.85864596948167,31.86994358762152 34.7439012510018,38.05304261690783 C12.629166468412222,44.23615672637844 -4.228226095176893,53.4081417303603 3.8716107463458798,84.92314112986266 Z "/><path id="path2400" transform="matrix(1 0 0 1 6.151022927443165 6.114976934740149)" width="84.68426012980885" height="97.21238937535992" stroke-width="3.6907138229453897" stroke-linecap="round" stroke-linejoin="round" stroke="#000000" fill="#293E53" d="M239.82634128874588,84.92314207237399 C231.73970292212033,116.44182292192302 207.25189192764043,136.98434905405662 185.13715714505054,130.80124531221298 C163.02240881351986,124.61814157036899 151.65887961926842,94.05185260184696 159.75870833142687,62.536853202344304 C167.8453602469935,31.018168582749453 186.8393205178137,31.86994358762152 208.9540543971409,38.05304261690783 C231.0687891797307,44.23615672637844 247.92618264658233,53.4081417303603 239.82634128874588,84.92314112986266 Z "/><path id="path2398" transform="matrix(1 0 0 1 6.151022927443165 6.114976934740149)" width="156.3429986690751" height="163.18532422832675" stroke-width="3.6907138229453897" stroke-linecap="round" stroke-linejoin="round" stroke="#000000" fill="#B71C1C" d="M199.4156858605362,83.47769224825991 C199.42854470864978,128.53614598881592 164.42621908955988,165.07034729358662 121.24419375210076,165.07034729358662 C78.06214763959835,165.07034729358662 43.05981840745781,128.53614598881592 43.072687191461114,83.47769224825991 C43.05981750419514,38.419230967611426 57.5948141207121,1.885023065259844 121.24419375210076,1.885023065259844 C186.17040569582844,1.885023065259844 199.42854561191234,38.419230967611426 199.4156858605362,83.47769224825991 Z "/><path id="path2383" transform="matrix(1 0 0 1 6.151022927443165 6.114976934740149)" width="197.88091152240233" height="206.54085849935382" stroke-width="3.6907138229453897" stroke-linecap="round" stroke-linejoin="round" stroke="#000000" fill="#293E53" d="M220.18463596436095,122.12063681074484 C220.2009272108187,179.1503357497054 175.89901687858026,225.39107124423498 121.24417929989704,225.39107124423498 C66.58935617341717,225.39107124423498 22.28743861507698,179.1503357497054 22.30372444195862,122.12063681074484 C22.28743861507698,65.09093033169185 66.58935617341717,18.850212744881162 121.24417929989704,18.850212744881162 C175.89901687858026,18.850212744881162 220.2009272108187,65.09093033169185 220.18463596436095,122.12063681074484 Z "/><path id="path3245" transform="matrix(1 0 0 1 6.151022927443165 6.114976934740149)" width="74.17013760793401" height="64.39266339032352" stroke-width="3.6907138229453897" stroke-linecap="round" stroke-linejoin="round" stroke="#000000" fill="#293E53" d="M45.31881524732074,217.78557151036466 C45.312706481530086,239.16174061050606 61.91804267922319,241.88502306526 82.4038822447624,241.88502306526 C102.88971548746233,241.88502306526 119.49505891125693,239.16174061050606 119.48895285525475,217.78557151036466 C119.49505891125693,196.4093741348778 102.19167676552445,184.60968582815417 82.4038822447624,179.07717706203107 C51.61987392878689,170.47020133153802 45.31270557826744,196.4093741348778 45.31881524732074,217.78557151036466 Z "/><path id="path3220" transform="matrix(1 0 0 1 6.151022927443165 6.114976934740149)" width="74.17014122098504" height="64.39266339032397" stroke-width="3.6907138229453897" stroke-linecap="round" stroke-linejoin="round" stroke="#000000" fill="#33691E" d="M202.58912329879865,216.84305997773487 C202.59522935480118,238.21922907787626 185.98989315710804,240.94251153263048 165.50405268830661,240.94251153263048 C145.0182122195049,240.94251153263048 128.41287602181166,238.21922907787626 128.4189820778136,216.84305997773487 C128.41287602181166,195.46686260224783 145.7162509414423,183.66717429552432 165.50405268830661,178.1346655294011 C196.28806100428164,169.52768979890806 202.59522935480118,195.46686260224783 202.58912329879865,216.84305997773487 Z "/><path id="svg_4" transform="matrix(1 0 0 1 6.151022927443165 6.114976934740149)" width="6.322839055486895" height="29.217857511530156" stroke-width="3.6907138229453897" stroke-linecap="round" stroke-linejoin="round" stroke="#000000" fill="none" d="M115.61762844319202,147.03179909028353 L121.94046749867891,176.24965660181368 "/><path id="svg_5" transform="matrix(1 0 0 1 6.151022927443165 6.114976934740149)" width="9.032627222124205" height="11.310138391560542" stroke-width="3.6907138229453897" stroke-linecap="round" stroke-linejoin="round" stroke="#000000" fill="none" d="M121.94046749867891,177.19216813444393 L112.90784027655471,188.50230652600447 "/><path id="svg_8" transform="matrix(1 0 0 1 6.151022927443165 6.114976934740149)" height="16.02269605471031" stroke-width="3.6907138229453897" stroke-linecap="round" stroke-linejoin="round" stroke="#000000" fill="none" d="M122.84373022089153,177.19216813444393 L122.84373022089153,193.21486418915424 "/><path id="svg_9" transform="matrix(1 0 0 1 6.151022927443165 6.114976934740149)" width="8.129364499912128" height="12.252649924190166" stroke-width="3.6907138229453897" stroke-linecap="round" stroke-linejoin="round" stroke="#000000" fill="none" d="M124.65025566531625,177.19216813444393 L132.77962016522838,189.4448180586341 "/></g></svg>